# xmcd
#
# Track frame offsets:
# 150
# 18254
# 33132
# 47069
# 60628
# 72243
# 86350
# 100636
# 116313
# 130762
# 147849
# 161309
# 174477
# 189309
# 203073
# 218530
# 233479
# 247624
# 263572
# 277534
# 292092
# 308150
# 324407
#
# Disc length: 4530 seconds
#
#
# Revision: 0
# Processed by: cddbd v1.5.2PL0 Copyright (c) Steve Scherf et al.
# Submitted via: FreeRIP 2.945 
#
DISCID=1d11b017
DTITLE=Fergus-J1998 - 1000White-Women10
DYEAR=1998
DGENRE=Native American
TTITLE0=1001
TTITLE1=1002
TTITLE2=1003
TTITLE3=1004
TTITLE4=1005
TTITLE5=1006
TTITLE6=1007
TTITLE7=1008
TTITLE8=1009
TTITLE9=1010
TTITLE10=1011
TTITLE11=1012
TTITLE12=1013
TTITLE13=1014
TTITLE14=1015
TTITLE15=1016
TTITLE16=1017
TTITLE17=1018
TTITLE18=1019
TTITLE19=1020
TTITLE20=1021
TTITLE21=1022
TTITLE22=1023
EXTD=One Thousand White Women\nby Jim Fergus - read by Laura Hicks\nFiction BBC Audio Books America
EXTT0=
EXTT1=
EXTT2=
EXTT3=
EXTT4=
EXTT5=
EXTT6=
EXTT7=
EXTT8=
EXTT9=
EXTT10=
EXTT11=
EXTT12=
EXTT13=
EXTT14=
EXTT15=
EXTT16=
EXTT17=
EXTT18=
EXTT19=
EXTT20=
EXTT21=
EXTT22=
PLAYORDER=
